<svg width="152" height="148" viewBox="0 0 152 148" fill="none" xmlns="http://www.w3.org/2000/svg">
<mask id="mask0_2_742" style="mask-type:luminance" maskUnits="userSpaceOnUse" x="0" y="0" width="152" height="148">
<path d="M151.149 12.8397L12.088 0.692871L0.35154 135.055L139.412 147.202L151.149 12.8397Z" fill="white"/>
</mask>
<g mask="url(#mask0_2_742)">
<path d="M101.641 43.4574C101.959 43.2664 102.278 43.0634 102.604 42.8882C102.927 42.6985 103.267 42.541 103.621 42.418C103.757 42.3625 103.906 42.3451 104.051 42.3676C104.196 42.3901 104.333 42.4517 104.446 42.5458C104.559 42.6398 104.645 42.7629 104.693 42.9017C104.742 43.0406 104.752 43.19 104.722 43.3341C104.684 43.9184 104.448 44.4723 104.053 44.9045C103.579 45.4452 103.075 45.9581 102.542 46.4405C102.001 46.966 101.352 47.3681 100.641 47.6193C100.558 47.6535 100.484 47.7081 100.427 47.7782C96.4687 52.1487 92.5124 56.5201 88.5577 60.8922L88.1655 61.3266C90.3553 66.6694 92.1865 72.1203 94.1395 77.5889L95.6373 77.4688C97.4718 77.2804 99.3219 77.3043 101.151 77.54C101.734 77.6434 102.304 77.8069 102.854 78.0279C103.118 78.1309 103.354 78.295 103.542 78.5069C103.73 78.7187 103.866 78.9723 103.937 79.2466C104.397 80.6108 104.31 82.0998 103.696 83.4015C103.035 84.7854 102.236 86.0995 101.313 87.3242C99.7239 89.4947 98.3229 91.7968 97.125 94.2053C97.0411 94.3727 96.9495 94.5363 96.8406 94.7385C96.9239 94.8181 97.0199 94.9147 97.1185 95.0036C97.7045 95.5215 98.2939 96.0356 98.8777 96.5553C99.0248 96.6866 99.2249 96.8095 99.0148 97.054C98.9769 97.0979 99.0019 97.2024 99.0104 97.2765C99.15 98.1377 99.2936 98.9983 99.4466 99.9239C99.6612 99.9146 99.9337 99.9083 100.204 99.8897C101.667 99.7837 103.133 99.6799 104.592 99.5625C104.748 99.5356 104.908 99.5616 105.047 99.6363C105.186 99.711 105.296 99.8302 105.359 99.9747C105.541 100.354 105.705 100.743 105.86 101.132C105.931 101.304 105.971 101.487 106.029 101.678C106.164 101.699 106.285 101.727 106.408 101.735C107.499 101.809 108.591 101.88 109.683 101.95C110.089 101.977 110.495 101.995 110.9 102.036C111.278 102.074 111.321 102.107 111.397 102.472C111.504 102.988 111.586 103.51 111.687 104.073C111.844 104.03 112.007 103.991 112.165 103.939C114.075 103.336 116.061 103.006 118.064 102.956C119.594 102.906 121.129 102.873 122.658 102.926C124.537 102.923 126.408 103.165 128.225 103.647C128.745 103.767 129.231 104.004 129.647 104.339C129.773 104.439 129.878 104.564 129.953 104.707C130.028 104.85 130.073 105.006 130.084 105.167C130.094 105.328 130.071 105.49 130.015 105.641C129.96 105.793 129.873 105.931 129.76 106.046C129.611 106.227 129.438 106.386 129.245 106.518C128.941 106.71 128.627 106.885 128.305 107.044C128.042 107.181 127.763 107.288 127.499 107.424C127.289 107.53 127.101 107.659 126.818 107.828C127.03 107.946 127.167 108.033 127.313 108.098C129.228 108.945 131.144 109.791 133.062 110.634C134.235 111.15 135.419 111.643 136.579 112.188C137.054 112.422 137.508 112.697 137.936 113.009C138.121 113.152 138.273 113.335 138.38 113.543C138.442 113.644 138.484 113.756 138.501 113.873C138.519 113.99 138.512 114.109 138.482 114.223C138.451 114.337 138.398 114.444 138.325 114.537C138.251 114.63 138.16 114.707 138.056 114.763C137.592 115.057 137.062 115.232 136.514 115.272C136.228 115.296 135.942 115.338 135.555 115.384C135.748 115.566 135.853 115.675 135.969 115.772C136.998 116.633 138.043 117.484 139.065 118.357C139.827 118.96 140.494 119.674 141.045 120.474C141.377 120.953 141.566 121.515 141.591 122.097C141.587 122.442 141.514 122.783 141.376 123.099C141.237 123.416 141.037 123.701 140.787 123.939C140.307 124.46 139.704 124.853 139.034 125.082C138.343 125.331 137.634 125.529 136.914 125.673C135.358 125.939 133.792 126.135 132.228 126.347C131.979 126.362 131.729 126.363 131.48 126.349C131.314 126.351 131.149 126.368 130.933 126.381C131.005 126.632 131.063 126.824 131.114 127.017C131.206 127.315 131.281 127.618 131.341 127.923C131.404 128.225 131.358 128.539 131.211 128.81C131.064 129.081 130.825 129.291 130.537 129.402C130.022 129.63 129.465 129.748 128.901 129.748C127.132 129.768 125.372 129.472 123.707 128.872C122.691 128.517 121.701 128.088 120.698 127.698C120.459 127.605 120.211 127.534 119.968 127.454C119.84 127.711 119.791 128.001 119.828 128.287C119.817 128.723 119.813 129.16 119.783 129.596C119.768 129.801 119.7 129.998 119.587 130.169C119.473 130.339 119.317 130.478 119.134 130.57C118.602 130.877 117.993 131.023 117.38 130.99C116.569 130.924 115.773 130.73 115.022 130.416C113.679 129.894 112.399 129.224 111.206 128.417C108.945 126.988 106.759 125.443 104.658 123.787C104.586 123.729 104.508 123.674 104.406 123.607C104.31 123.682 104.214 123.755 104.122 123.835C104.03 123.914 103.916 124.026 103.808 124.116C103.01 124.783 102.856 124.813 101.921 124.365C100.497 123.683 99.0786 122.991 97.6648 122.287C97.5562 122.212 97.4255 122.175 97.2935 122.182C97.1615 122.19 97.0358 122.242 96.9365 122.329C96.7482 122.486 96.5361 122.616 96.3522 122.78C96.1988 122.916 96.0602 122.848 95.92 122.787C95.2434 122.49 94.5733 122.2 93.9081 121.888C92.8746 121.403 91.8425 120.913 90.8262 120.403C90.6808 120.307 90.504 120.272 90.3328 120.304C90.1616 120.335 90.0094 120.432 89.9081 120.574C90.4951 121.774 90.631 123.146 90.2911 124.438C90.2056 124.946 90.123 125.455 90.0375 125.963C89.6999 127.966 89.3634 129.969 89.1933 131.997C89.0818 133.273 88.9254 134.546 88.7751 135.82C88.6465 137.378 88.3572 138.918 87.9119 140.416C87.741 140.918 87.5078 141.396 87.2176 141.839C87.0415 142.132 86.7652 142.352 86.4396 142.458C86.114 142.564 85.7612 142.549 85.4461 142.415C85.0152 142.276 84.6061 142.077 84.2313 141.823C83.1468 141.026 82.0623 140.228 81.0403 139.358C79.2188 137.807 77.4677 136.174 75.644 134.625C72.0313 131.557 68.4018 128.51 64.7555 125.484C60.5591 122.019 56.3245 118.599 52.1033 115.165C51.497 114.671 50.8283 114.251 50.254 113.725C49.8463 113.366 49.3549 113.116 48.8251 112.998C45.2483 112.044 41.6625 111.125 38.1044 110.105C31.9552 108.381 25.9034 106.326 19.9751 103.95C16.6848 102.661 13.4976 101.122 10.4416 99.3472C8.86003 98.4523 7.39495 97.3656 6.0795 96.1119C5.4311 95.4967 4.90024 94.7685 4.51292 93.9629C4.32924 93.5987 4.22009 93.2015 4.19187 92.7946C4.16365 92.3876 4.21693 91.9792 4.34859 91.5931C4.42281 91.3868 4.33187 91.2905 4.18863 91.1265C4.68233 90.7481 5.14412 90.379 5.62209 90.0313C8.04559 88.307 10.646 86.8459 13.3793 85.6728C17.3963 83.9248 21.5769 82.5795 25.8596 81.6567C29.0318 80.955 32.2414 80.4342 35.4728 80.0968C37.0377 79.9324 38.6076 79.8267 40.1808 79.7282C41.5502 79.6421 42.9218 79.5762 44.2933 79.5475C45.541 79.521 46.7899 79.5508 48.039 79.5666C48.6485 79.5747 49.2566 79.6107 49.8654 79.6258C50.0477 79.6306 50.2302 79.6095 50.4308 79.5989L49.8054 74.4309C49.0366 74.2473 48.2342 74.0347 47.4307 73.8692C44.4257 73.3027 41.5712 72.1176 39.0485 70.3892C37.4814 69.3278 36.0039 68.1397 34.6309 66.837C33.9262 66.1657 33.3842 65.3422 33.0465 64.4294C32.7088 63.5167 32.5842 62.5388 32.6823 61.5705C32.8399 59.5203 33.4571 57.5319 34.4881 55.7528C34.6105 55.5597 34.6815 55.3385 34.6944 55.1102C34.7073 54.882 34.6617 54.6542 34.5619 54.4485C33.05 50.8052 32.4477 46.8486 32.8069 42.9204C33.1549 38.9121 34.4738 35.0489 36.6494 31.6645C38.4417 28.8675 40.7739 26.456 43.5094 24.5711C47.9547 21.5177 53.2685 19.9839 58.6572 20.1988C59.0823 20.2159 59.0877 20.2114 59.176 19.7865C59.2943 19.1811 59.6366 18.6426 60.1347 18.2785C60.8707 17.7226 61.6024 17.1593 62.334 16.5959C62.4674 16.4932 62.5918 16.3796 62.7478 16.2477C62.6313 16.0769 62.5438 15.9288 62.4407 15.7994C61.1663 14.1351 59.8912 12.4715 58.6154 10.8085C58.2877 10.3785 58.2887 10.3896 57.7783 10.5688C57.2019 10.8109 56.5637 10.864 55.9552 10.7207C55.3467 10.5774 54.7993 10.245 54.3915 9.77118C53.9685 9.34287 53.6888 8.79381 53.5911 8.19978C53.4935 7.60574 53.5826 6.99603 53.8462 6.45482C54.0563 5.92605 54.4164 5.47022 54.8821 5.14341C55.3479 4.8166 55.899 4.63307 56.4677 4.61539C57.0421 4.55767 57.6207 4.67273 58.1293 4.94584C58.6379 5.21895 59.0534 5.63766 59.3225 6.14836C59.6335 6.64282 59.7901 7.21873 59.7724 7.80259C59.7546 8.38645 59.5633 8.95178 59.2229 9.42644C59.1147 9.59663 58.9846 9.75287 58.8731 9.90371C59.0267 10.2935 62.9853 15.4816 63.3503 15.7734C63.4486 15.7158 63.5534 15.6537 63.6601 15.5928C64.1759 15.283 64.7885 15.176 65.3788 15.2925C65.9691 15.409 66.4951 15.7406 66.8547 16.2231C68.7988 18.7533 70.7403 21.2861 72.6793 23.8213C73.0286 24.23 73.2192 24.7507 73.2165 25.2883C73.2158 25.4114 73.2446 25.5328 73.3005 25.6425C73.3564 25.7521 73.4378 25.8468 73.5378 25.9185C74.2635 26.5841 75.0001 27.2395 75.6916 27.9402C76.9248 29.2076 78.0047 30.6156 78.909 32.1353C80.4235 34.6273 81.4887 37.3658 82.0561 40.2262C82.5691 42.7611 82.6719 45.3619 82.3607 47.9294C82.2906 48.5023 82.2076 49.0731 82.1257 49.6772C82.4403 49.773 82.7296 49.9375 82.9727 50.1589C83.2158 50.3802 83.4066 50.6529 83.5314 50.9571C83.7342 51.289 83.9137 51.6358 84.1195 52.002C84.1927 51.971 84.263 51.9338 84.33 51.891C86.6446 50.1027 88.958 48.3129 91.2702 46.5218C92.7068 45.3582 93.98 44.0064 95.0555 42.5028C96.1045 41.0991 97.1012 39.6617 98.0072 38.1591C98.3487 37.618 98.7419 37.1112 99.1811 36.6459C99.3767 36.4407 99.6162 36.2824 99.8815 36.1827C100.147 36.083 100.431 36.0446 100.714 36.0702C101.093 36.0645 101.463 36.184 101.768 36.4102C102.072 36.6364 102.294 36.9566 102.398 37.3213C102.584 37.9362 102.669 38.577 102.652 39.2192C102.679 40.0556 102.575 40.8911 102.343 41.6952C102.172 42.1631 101.973 42.6202 101.747 43.0642C101.698 43.1733 101.628 43.2736 101.573 43.3782L101.646 43.4618M47.936 79.9761C47.4853 81.2332 47.3631 82.5847 47.581 83.9023C47.9178 86.3469 48.8895 88.6605 50.3991 90.6126C51.275 91.8437 52.4678 92.8149 53.8509 93.4231C53.8951 93.4388 53.9384 93.457 53.9806 93.4776C54.0138 93.4906 54.0433 93.5115 54.0665 93.5385C54.0898 93.5655 54.106 93.5978 54.1139 93.6326C54.1217 93.6673 54.121 93.7035 54.1116 93.7379C54.1022 93.7723 54.0846 93.8038 54.0602 93.8298C53.9521 93.999 53.8306 94.161 53.7359 94.3374C52.926 95.8724 52.1195 97.4077 51.3163 98.9433C51.1401 99.1818 51.0074 99.4495 50.9241 99.734C50.8922 100.099 50.6687 100.199 50.4159 100.324C48.9004 101.033 47.1869 101.198 45.5637 100.792C43.939 100.433 42.4127 99.7219 41.092 98.7096C37.3911 95.9747 34.8138 91.9846 33.8428 87.4864C33.4536 85.9039 33.3712 84.2615 33.6001 82.6479C33.6964 82.005 33.8377 81.364 33.9582 80.7302C30.8904 81.0079 27.8532 81.5577 24.8827 82.3732C24.9028 82.4149 24.928 82.4538 24.9579 82.4892C25.7166 83.2193 26.3092 84.1042 26.6953 85.0837C27.6948 87.5555 28.1371 90.2172 27.9904 92.8794C27.9522 94.2714 27.7764 95.6562 27.4657 97.0135C27.1318 98.606 26.5618 100.14 25.7746 101.564C25.134 102.83 24.1206 103.869 22.8711 104.541C22.8418 104.555 22.8319 104.61 22.8065 104.659C22.9354 104.713 23.0483 104.764 23.1649 104.808C26.2579 105.993 29.3914 107.058 32.5549 108.044C34.7909 108.741 37.0335 109.416 39.2827 110.07C41.2738 110.645 43.2733 111.193 45.2759 111.728C46.8264 112.143 48.3862 112.519 49.9429 112.909C51.4554 113.287 52.9661 113.675 54.4834 114.032C56.1077 114.417 57.7381 114.779 59.367 115.145C60.8907 115.488 62.4179 115.835 63.9413 116.158C65.9292 116.578 67.9195 116.986 69.9122 117.382C71.5368 117.706 73.1693 118.009 74.7919 118.321C75.5431 118.465 76.2936 118.617 77.0472 118.756C77.8459 118.903 78.6459 119.044 79.4471 119.177C79.5984 119.21 79.7551 119.207 79.9054 119.17C80.9395 118.849 81.8886 118.301 82.683 117.565C83.8146 116.48 84.7535 115.211 85.4597 113.811C86.8824 111.023 87.8349 108.018 88.2788 104.919C88.5 103.528 88.6323 102.125 88.6749 100.717C88.7422 98.9388 88.6686 97.1578 88.4547 95.391C88.213 93.3401 87.7076 91.3291 86.9511 89.4076C86.8786 89.213 86.7675 89.035 86.6244 88.8845C86.4812 88.734 86.3091 88.6141 86.1183 88.532C83.653 87.3529 81.1287 86.3013 78.5554 85.3815C75.8538 84.4068 73.0998 83.5839 70.3063 82.9167C69.2717 82.6747 68.2271 82.4771 67.188 82.2519C65.7982 81.9508 64.4178 81.5994 63.0187 81.3478C61.4506 81.0663 59.8678 80.8718 58.2901 80.6427C57.5468 80.5356 56.8035 80.4275 56.0578 80.3473C53.7303 80.0898 51.3896 79.9701 49.0479 79.9889C48.6902 79.9938 48.3331 79.9797 47.9393 79.9734M54.8192 46.3757L54.8476 46.4524C55.0577 46.4217 55.2654 46.3768 55.4695 46.3181C55.8517 46.1819 56.2172 45.996 56.6025 45.8711C56.8798 45.7734 57.1715 45.7229 57.4656 45.7217C57.5684 45.7201 57.6704 45.7417 57.7639 45.7846C57.8573 45.8276 57.94 45.891 58.0059 45.97C58.0717 46.0491 58.119 46.1419 58.1444 46.2416C58.1697 46.3414 58.1724 46.4455 58.1523 46.5464C58.1041 46.8537 57.9986 47.1491 57.8413 47.4174C57.1696 48.4254 56.2172 49.2145 55.1019 49.6872C54.5738 49.9245 54.0245 50.1117 53.4614 50.2464C51.4412 50.8206 51.9468 50.5697 50.3846 51.8293C47.7298 53.9318 45.4458 56.4641 43.6273 59.321C42.9068 60.4572 42.2975 61.6603 41.8081 62.9136C41.7466 63.0211 41.7273 63.1476 41.7538 63.2686C41.7803 63.3896 41.8508 63.4964 41.9516 63.5684C42.6075 64.1024 43.2252 64.6832 43.9 65.1838C46.1476 66.7564 48.6501 67.9287 51.2969 68.649C53.4689 69.3316 55.7667 69.5165 58.02 69.1901C60.0267 68.9665 61.9731 68.3656 63.7567 67.419C64.6155 66.9412 65.4487 66.4187 66.2529 65.8537C67.8347 64.728 69.2177 63.3466 70.3453 61.7662C72.6839 58.5236 73.9125 54.6123 73.8479 50.6148C73.7833 46.6174 72.429 42.7478 69.9868 39.5824C68.7239 37.9425 67.1875 36.5328 65.4452 35.4152C62.4043 33.4349 58.8477 32.3936 55.2189 32.4213C51.5902 32.4489 48.0499 33.5443 45.0395 35.5707C43.3295 36.7031 41.8267 38.1208 40.5968 39.7621C38.1978 42.9549 36.8924 46.8362 36.8741 50.8298C36.8693 51.1836 36.8959 51.5342 36.908 51.9006C36.9946 51.8861 37.0332 51.8924 37.0508 51.8749C37.1411 51.789 37.2268 51.6983 37.3074 51.6033C38.9011 49.7112 40.6884 47.9911 42.6402 46.471C44.3812 45.0836 46.2752 43.9202 48.1381 42.712C49.5676 41.7536 51.0816 40.9275 52.6611 40.2439C53.6879 39.7718 54.8083 39.5386 55.9382 39.5616C56.1658 39.5674 56.3885 39.6285 56.587 39.7398C56.7856 39.8511 56.954 40.0091 57.0778 40.2001C57.2848 40.4968 57.4263 40.8343 57.4926 41.19C57.559 41.5458 57.5488 41.9116 57.4626 42.263C57.1664 43.6502 56.458 44.9155 55.4303 45.8931C55.2431 46.0725 55.0245 46.219 54.8198 46.3797M57.3814 80.0735C57.1693 79.7418 57.0883 79.343 57.1543 78.9548C57.2203 78.5667 57.4286 78.217 57.7384 77.9741C58.0488 77.6434 58.3999 77.3533 58.7833 77.1109C59.4191 76.7132 60.081 76.3589 60.7647 76.0506C63.4009 74.9248 66.2079 74.2512 69.0679 74.0581C70.3155 73.946 71.572 73.986 72.8099 74.1772C73.6554 74.2512 74.4641 74.5566 75.1475 75.0598C75.2091 75.1063 75.2813 75.1364 75.3576 75.1475C75.466 75.1687 75.5673 75.2169 75.6522 75.2877C75.737 75.3584 75.8027 75.4494 75.8432 75.5522C76.076 76.0138 76.1701 76.5331 76.114 77.0471C76.0355 77.3261 76.0101 77.6173 76.039 77.9057C77.6674 78.2436 81.8099 76.9495 83.1172 75.7138C81.4545 71.0574 79.2507 63.8518 79.3634 63.2053L81.2117 68.2763C85.432 63.4483 89.7494 58.7733 93.9947 54.0619C93.1967 51.7858 91.7906 49.7717 89.929 48.2382C89.8704 48.2772 89.8027 48.3165 89.7414 48.3633C87.6876 49.9235 85.6341 51.4837 83.5809 53.0439C82.534 53.8386 81.4836 54.627 80.4404 55.4251C80.29 55.5345 80.1605 55.67 80.0582 55.8253C79.8238 56.2113 79.6206 56.619 79.3927 57.0106C78.714 58.2781 77.9283 59.4854 77.0442 60.6191C76.1022 61.7668 75.0769 62.8436 73.9768 63.8407C72.8931 64.7878 71.7301 65.6402 70.5006 66.3883C69.7833 66.8305 69.0326 67.2159 68.2552 67.541C66.9744 68.1206 65.6505 68.5995 64.2953 68.9735C64.0727 69.0283 63.8748 69.1917 63.6526 69.2425C63.0147 69.3875 62.3728 69.5322 61.7262 69.6272C59.4334 69.9671 57.1068 70.0151 54.8019 69.7701C54.3647 69.7478 53.9293 69.6983 53.4981 69.6221C51.7749 69.2307 50.0818 68.7166 48.4319 68.0836C46.043 67.181 43.8062 65.9185 41.7989 64.3399C41.7052 64.2644 41.6006 64.1971 41.4797 64.1113C41.3102 64.4857 41.2054 64.8861 41.1695 65.2955C41.1127 65.4677 41.1148 65.6539 41.1752 65.8248C41.2357 65.9957 41.3511 66.1417 41.5035 66.24C41.5177 66.2492 41.5085 66.2976 41.5109 66.3269C41.1405 66.4662 40.8355 66.3613 40.7348 66.0213C40.6813 65.826 40.665 65.6223 40.6868 65.421C40.8193 64.286 41.1164 63.1763 41.5687 62.1269C42.7258 59.398 44.3931 56.915 46.4811 54.8112C46.9893 54.2775 47.0023 54.2787 46.7697 53.598C46.2048 52.0644 45.2796 50.6891 44.072 49.5878C43.481 49.0016 42.8053 48.5075 42.0674 48.1221C41.6898 47.9295 41.6778 47.9174 41.3756 48.2062C40.5061 49.0385 39.6169 49.854 38.7937 50.7305C38.0261 51.5327 37.3099 52.3826 36.6495 53.275C36.0222 54.1717 35.4453 55.1027 34.9216 56.0636C34.0969 57.4885 33.5408 59.0527 33.2811 60.6784C33.043 61.7536 33.0929 62.8726 33.4255 63.9224C33.7581 64.9722 34.3617 65.9157 35.1754 66.6577C36.1917 67.5925 37.2623 68.4457 38.3582 69.2851C40.7448 71.094 43.4684 72.4084 46.3694 73.1513C47.667 73.4964 48.9789 73.7937 50.2824 74.1163C50.5948 74.1938 50.904 74.285 51.2442 74.377C51.2327 73.7045 51.2047 73.0829 51.2193 72.4679C51.2414 72.0941 51.2863 71.722 51.3537 71.3536C51.3763 71.1991 51.4248 71.0457 51.7136 71.0599C51.763 71.6433 51.6274 72.2306 51.6819 72.8134C51.7363 73.3963 51.7489 73.9995 51.8148 74.5894C51.8791 75.163 51.9655 75.7366 52.0816 76.3027C52.2014 76.8843 52.355 77.4587 52.5199 78.0291C52.6849 78.5995 52.8774 79.1522 53.0534 79.7005L57.3814 80.0735ZM50.413 113.433L50.3793 113.496C50.4811 113.583 50.5774 113.676 50.6848 113.755C51.7761 114.567 52.8897 115.353 53.9554 116.193C56.026 117.834 58.0763 119.501 60.1232 121.172C64.3145 124.593 68.5271 127.987 72.6728 131.46C75.37 133.718 77.9507 136.113 80.6165 138.408C81.8113 139.437 83.0772 140.386 84.3315 141.342C84.6735 141.59 85.0471 141.791 85.4424 141.941C85.568 142.01 85.7064 142.052 85.849 142.065C85.9917 142.079 86.1355 142.063 86.2717 142.018C86.4079 141.974 86.5335 141.901 86.6407 141.806C86.7479 141.711 86.8344 141.595 86.8949 141.465C87.1679 141.029 87.3806 140.557 87.5272 140.063C87.7794 139.13 87.965 138.177 88.1435 137.225C88.2249 136.757 88.2699 136.283 88.2783 135.809C88.2148 135.793 88.1505 135.781 88.0858 135.772C87.1207 135.71 86.1522 135.687 85.1922 135.579C84.8212 135.545 84.4717 135.389 84.1977 135.137C83.9236 134.885 83.7401 134.549 83.6753 134.182C83.5957 133.864 83.5407 133.54 83.4856 133.217C83.3345 132.133 83.2827 131.037 83.331 129.943C83.3243 128.674 83.525 127.412 83.9252 126.208C84.0413 125.853 84.2163 125.519 84.4429 125.222C84.5949 125.008 84.8148 124.853 85.0666 124.78C85.3185 124.708 85.5874 124.723 85.8296 124.823C86.1954 124.959 86.5529 125.117 86.9004 125.295C87.6504 125.682 88.3905 126.09 89.1368 126.485C89.2581 126.537 89.3826 126.582 89.5096 126.618C89.6784 125.547 89.8714 124.533 89.9817 123.511C90.023 122.966 90.0097 122.418 89.9418 121.876C89.9042 121.614 89.8185 121.36 89.689 121.129C89.5667 120.886 89.4002 120.851 89.1375 120.951C88.962 121.018 88.7916 121.096 88.6166 121.17C88.3905 121.265 88.181 121.319 87.9779 121.094C87.8781 121.02 87.7584 120.977 87.6342 120.972C87.0633 120.879 86.4911 120.8 85.9202 120.707C85.0262 120.562 84.1329 120.411 83.2401 120.253C81.9787 120.034 80.7176 119.81 79.4554 119.588C78.6865 119.452 77.9159 119.324 77.1482 119.185C75.9966 118.972 74.8478 118.75 73.6928 118.53C72.7274 118.345 71.761 118.161 70.7962 117.97C69.8018 117.773 68.8078 117.571 67.8143 117.363C66.9133 117.177 66.0125 116.987 65.112 116.795C64.2725 116.617 63.4335 116.437 62.5949 116.256C61.3292 115.982 60.063 115.714 58.8003 115.429C57.6144 115.161 56.4321 114.874 55.2483 114.593C54.0803 114.315 52.9126 114.033 51.7447 113.755C51.2964 113.648 50.8478 113.545 50.3996 113.437M119.883 111.007C120.167 111.115 120.361 111.205 120.563 111.268C122.074 111.716 123.561 112.245 125.016 112.852C126.032 113.222 126.975 113.766 127.803 114.46C128.074 114.696 128.318 114.961 128.529 115.251C128.61 115.348 128.671 115.461 128.705 115.583C128.74 115.705 128.749 115.833 128.73 115.959C128.712 116.084 128.668 116.204 128.6 116.312C128.532 116.419 128.442 116.51 128.337 116.58C128.198 116.698 128.04 116.795 127.855 116.927C127.998 117.017 128.073 117.072 128.154 117.113C128.827 117.454 129.476 117.831 130.166 118.121C131.264 118.6 132.184 119.41 132.799 120.438C133.044 120.818 133.235 121.23 133.365 121.663C133.429 121.83 133.456 122.008 133.446 122.186C133.436 122.364 133.388 122.537 133.306 122.696C133.224 122.854 133.11 122.993 132.97 123.104C132.83 123.214 132.669 123.294 132.496 123.338C132.189 123.453 131.868 123.527 131.542 123.556C129.936 123.708 128.316 123.587 126.75 123.2C126.304 123.086 125.854 122.99 125.407 122.882C125.54 123.135 125.698 123.375 125.877 123.598C125.973 123.713 126.041 123.849 126.078 123.995C126.114 124.14 126.116 124.292 126.086 124.439C126.055 124.585 125.991 124.723 125.899 124.842C125.808 124.961 125.69 125.057 125.556 125.124C125.314 125.265 125.045 125.353 124.766 125.384C123.671 125.463 122.572 125.32 121.534 124.962C120.624 124.677 119.722 124.366 118.813 124.08C118.555 123.999 118.283 123.962 117.927 123.883C118.054 124.157 118.146 124.334 118.22 124.517C118.28 124.62 118.315 124.735 118.324 124.854C118.333 124.972 118.315 125.091 118.272 125.202C118.228 125.313 118.16 125.412 118.073 125.493C117.986 125.574 117.881 125.634 117.768 125.669C117.201 125.945 116.57 126.059 115.943 125.998C115.262 125.914 114.589 125.778 113.929 125.59C111.791 124.935 109.715 124.092 107.726 123.073C107.039 122.737 106.363 122.381 105.654 122.02L104.582 123.384C104.626 123.437 104.674 123.487 104.726 123.533C107.363 125.491 110.105 127.303 112.941 128.962C114.09 129.631 115.327 130.138 116.616 130.467C117.333 130.66 118.095 130.592 118.767 130.276C118.943 130.208 119.096 130.09 119.207 129.936C119.317 129.783 119.381 129.6 119.391 129.412C119.403 129.271 119.415 129.131 119.42 128.991C119.429 128.569 119.413 128.146 119.443 127.726C119.479 127.209 119.77 127.011 120.273 127.136C120.469 127.189 120.661 127.255 120.849 127.334C121.502 127.592 122.147 127.875 122.805 128.124C124.696 128.884 126.71 129.293 128.747 129.332C129.296 129.35 129.843 129.247 130.348 129.031C130.565 128.955 130.746 128.8 130.854 128.597C130.962 128.394 130.989 128.157 130.931 127.935C130.881 127.69 130.818 127.449 130.744 127.211C130.681 126.986 130.601 126.764 130.55 126.536C130.46 126.141 130.537 126.019 130.942 125.983C131.299 125.95 131.662 125.991 132.017 125.952C133.024 125.839 134.033 125.727 135.032 125.565C136.094 125.391 137.152 125.185 138.198 124.938C138.984 124.77 139.711 124.399 140.309 123.862C140.577 123.645 140.794 123.371 140.944 123.059C141.094 122.748 141.174 122.408 141.177 122.062C141.161 121.526 140.972 121.009 140.637 120.589C140.319 120.144 139.959 119.73 139.561 119.354C138.619 118.509 137.637 117.709 136.671 116.894C136.194 116.489 135.709 116.092 135.243 115.676C134.979 115.441 135.011 115.244 135.333 115.113C135.563 115.022 135.805 114.964 136.051 114.94C136.662 114.928 137.261 114.763 137.792 114.459C138.135 114.23 138.211 113.942 137.945 113.63C137.717 113.354 137.443 113.118 137.136 112.934C136.603 112.639 136.054 112.373 135.492 112.137C133.359 111.204 131.219 110.288 129.088 109.355C128.302 109.01 127.525 108.642 126.753 108.267C126.329 108.06 126.305 107.773 126.684 107.48C126.911 107.314 127.153 107.17 127.406 107.048C127.808 106.84 128.233 106.671 128.625 106.446C128.91 106.284 129.172 106.085 129.405 105.855C129.5 105.776 129.574 105.677 129.623 105.564C129.672 105.451 129.693 105.329 129.685 105.206C129.678 105.084 129.641 104.965 129.578 104.859C129.515 104.754 129.428 104.664 129.324 104.599C129.126 104.446 128.907 104.322 128.675 104.231C127.904 103.925 127.098 103.722 126.275 103.626C124.07 103.361 121.85 103.255 119.63 103.308C118.241 103.326 116.854 103.429 115.477 103.615C114.179 103.807 112.901 104.121 111.662 104.552C111.528 105.714 111.396 106.865 111.264 108.02C112.417 107.852 113.517 107.714 114.609 107.53C116.484 107.198 118.415 107.427 120.161 108.187C120.464 108.313 120.746 108.483 120.999 108.692C121.115 108.78 121.21 108.894 121.276 109.024C121.342 109.154 121.377 109.298 121.379 109.444C121.381 109.59 121.35 109.734 121.288 109.866C121.226 109.998 121.134 110.114 121.02 110.205C120.808 110.39 120.584 110.56 120.349 110.714C120.227 110.804 120.094 110.873 119.878 111.006M26.0347 92.7728C26.1495 91.2474 26.047 89.7135 25.7301 88.2169C25.3925 86.3478 24.6312 84.5809 23.5047 83.0517C23.2249 82.682 23.223 82.6809 22.7657 82.8035C19.3626 83.6988 16.0403 84.8769 12.8335 86.3257C10.1685 87.5313 7.62007 88.9798 5.22058 90.6526C5.08681 90.7283 4.97394 90.836 4.89211 90.9661C4.65387 91.4361 4.53391 91.9571 4.54263 92.4839C4.55136 93.0108 4.6885 93.5275 4.94216 93.9893C5.25562 94.5669 5.64398 95.1006 6.09716 95.5766C7.22966 96.7237 8.50085 97.7251 9.88127 98.5576C13.3482 100.646 16.9914 102.427 20.7691 103.88C20.8649 103.929 20.9744 103.945 21.0801 103.925C21.1858 103.905 21.2818 103.85 21.3529 103.769C22.0847 103.108 22.7274 102.354 23.2648 101.527C24.9228 98.894 25.8838 95.8825 26.0575 92.7758M111.154 108.494C110.645 110.833 109.948 113.127 109.069 115.354C108.201 117.594 107.117 119.744 105.831 121.773C106.002 121.865 106.133 121.945 106.271 122.012C107.719 122.668 109.166 123.337 110.627 123.973C112.15 124.66 113.742 125.184 115.376 125.534C116.116 125.685 116.885 125.607 117.58 125.312C117.935 125.167 117.998 124.999 117.859 124.646C117.797 124.487 117.702 124.341 117.628 124.185C117.429 123.767 117.588 123.496 118.051 123.525C118.378 123.55 118.7 123.612 119.013 123.709C119.805 123.947 120.589 124.208 121.377 124.461C122.189 124.74 123.034 124.917 123.891 124.987C124.341 125.051 124.801 124.998 125.225 124.833C125.738 124.59 125.848 124.238 125.518 123.78C125.302 123.477 125.018 123.222 124.789 122.929C124.712 122.832 124.635 122.655 124.675 122.568C124.717 122.517 124.769 122.476 124.83 122.448C124.89 122.421 124.955 122.408 125.021 122.41C125.349 122.427 125.674 122.473 125.994 122.547C127.279 122.889 128.6 123.081 129.93 123.119C130.617 123.141 131.304 123.104 131.984 123.01C132.988 122.844 133.259 122.28 132.855 121.345C132.52 120.583 132.034 119.897 131.425 119.329C131.227 119.129 131.002 118.958 130.756 118.821C129.754 118.31 128.736 117.821 127.728 117.331C127.549 117.244 127.302 117.224 127.281 116.979C127.259 116.714 127.501 116.628 127.684 116.512C128.478 116.019 128.519 115.677 127.849 115.021C127.228 114.4 126.493 113.905 125.685 113.56C124.531 113.08 123.372 112.613 122.203 112.174C121.385 111.868 120.545 111.628 119.713 111.345C119.529 111.283 119.311 111.24 119.235 110.947C119.356 110.857 119.485 110.757 119.624 110.672C119.876 110.516 120.143 110.382 120.39 110.219C121.409 109.545 120.988 109.003 120.246 108.655C119.782 108.431 119.299 108.25 118.803 108.111C118.074 107.882 117.316 107.758 116.551 107.743C115.446 107.802 114.345 107.925 113.254 108.111C112.56 108.203 111.874 108.359 111.149 108.492M34.4868 80.5958C34.4269 80.7531 34.3605 80.8938 34.3195 81.0408C33.8262 82.9068 33.7715 84.8617 34.1598 86.7524C34.8783 90.6122 36.786 94.1508 39.6156 96.8725C41.3065 98.6323 43.4716 99.8638 45.8484 100.418C47.1055 100.707 48.4188 100.635 49.637 100.211C49.8652 100.146 50.0768 100.033 50.2571 99.8791C50.4374 99.7251 50.5821 99.5338 50.6814 99.3184C51.5098 97.6014 52.4334 95.9318 53.3206 94.2429C53.3965 94.098 53.4628 93.9482 53.5438 93.7787C52.676 93.4054 51.885 92.8746 51.2107 92.213C49.1566 90.2088 47.7761 87.6157 47.2604 84.7926C46.9091 83.2595 46.9794 81.66 47.464 80.1637C47.477 80.0954 47.4831 80.026 47.4821 79.9565C43.1386 79.8717 38.7943 80.0848 34.48 80.5942M103.496 82.7428C103.539 82.6662 103.576 82.587 103.609 82.5057C103.935 81.4361 103.905 80.2894 103.523 79.2385C103.462 79.0423 103.357 78.8629 103.215 78.7145C103.074 78.566 102.899 78.4527 102.706 78.3834C102.196 78.1909 101.67 78.0441 101.134 77.9449C99.3662 77.6964 97.574 77.6789 95.802 77.8927C93.9543 78.0775 92.1046 78.2853 90.2701 78.5717C87.5116 79.0031 84.7619 79.4956 82.0165 79.9964C81.0832 80.2982 80.1202 80.4987 79.1441 80.5946C79.0978 80.6014 79.0526 80.6139 79.0094 80.632C76.4734 81.2474 73.9374 81.8623 71.4016 82.4764C71.2875 82.5135 71.1758 82.5574 71.0669 82.6078C71.1386 82.6481 71.213 82.6834 71.2895 82.7135C71.9657 82.9 72.6446 83.0788 73.3206 83.2673C77.009 84.2905 80.617 85.5838 84.1155 87.1367C88.4507 89.019 92.5354 91.4321 96.2759 94.3209C96.3511 94.3731 96.4294 94.4208 96.5103 94.4638L98.5712 90.6204C98.1334 90.5079 97.7129 90.4049 97.2951 90.2931C96.939 90.2233 96.6131 90.0456 96.3616 89.7841C96.11 89.5226 95.9451 89.19 95.8893 88.8315C95.7373 88.0462 95.7809 87.2356 96.0162 86.4711C96.4908 84.9443 97.2789 83.5334 98.33 82.3286C98.6092 81.9554 98.9982 81.6789 99.4425 81.5377C99.8867 81.3966 100.364 81.3979 100.807 81.5414C101.213 81.6579 101.609 81.8039 101.994 81.9782C102.49 82.2032 102.967 82.4698 103.499 82.742M82.7183 119.746C83.3962 119.867 84.0025 119.981 84.6185 120.087C85.6487 120.265 86.6827 120.423 87.708 120.622C87.9687 120.698 88.2426 120.716 88.5109 120.676C88.7793 120.635 89.0358 120.538 89.2629 120.389C89.7336 120.055 90.2441 119.772 90.6922 119.41C92.3505 118.019 93.7423 116.338 94.7997 114.45C96.8254 111.062 98.1635 107.308 98.7373 103.403C99.0658 101.33 99.0232 99.2158 98.6113 97.1583C98.5545 96.885 98.406 96.6394 98.1904 96.4622C95.4472 94.037 92.4436 91.9234 89.2348 90.1601C89.1133 90.1029 88.9887 90.0528 88.8615 90.0101C88.8973 90.1286 88.9103 90.187 88.9325 90.2421C89.1806 90.8489 89.4649 91.4437 89.6765 92.0654C90.5632 94.9045 90.9122 97.8843 90.7055 100.851C90.5937 103.084 90.2523 105.298 89.6866 107.46C89.1529 109.598 88.3859 111.67 87.3996 113.64C86.3264 115.91 84.7818 117.926 82.8686 119.553C82.8137 119.614 82.7634 119.68 82.7182 119.748M90.6971 120.044C91.0054 120.179 91.2603 120.293 91.5147 120.403C92.9124 121.027 94.3169 121.642 95.7017 122.287C95.8378 122.358 95.992 122.387 96.1446 122.37C96.2971 122.353 96.4411 122.291 96.5581 122.191C98.0414 121.167 99.3426 119.902 100.408 118.448C102.376 115.83 103.876 112.891 104.841 109.761C105.591 107.568 105.922 105.253 105.816 102.938C105.779 101.997 105.522 101.078 105.066 100.254C105.022 100.155 104.947 100.072 104.853 100.018C104.758 99.9643 104.649 99.9419 104.541 99.9544C104.214 99.9771 103.886 99.9655 103.559 99.9841C102.281 100.057 101.006 100.134 99.7323 100.215C99.6238 100.228 99.5162 100.247 99.4101 100.273C99.3944 100.452 99.374 100.606 99.3675 100.76C99.3548 101.181 99.3848 101.608 99.3323 102.025C99.1945 103.108 99.0731 104.2 98.8483 105.268C98.2969 107.933 97.3875 110.51 96.1446 112.931C95.0928 115.085 93.7117 117.061 92.0511 118.789C91.6341 119.209 91.178 119.593 90.6911 120.043M97.6425 121.933C97.7608 121.992 97.8649 122.053 97.9732 122.1C98.3284 122.262 98.6873 122.416 99.0402 122.581C100.228 123.135 101.415 123.691 102.598 124.254C102.773 124.338 102.925 124.371 103.067 124.226C103.398 123.892 103.913 123.734 104.013 123.188C104.016 123.158 104.08 123.139 104.113 123.113C104.256 123.03 104.386 122.928 104.5 122.809C104.984 122.138 105.487 121.475 105.916 120.77C107.859 117.5 109.33 113.973 110.284 110.291C110.809 108.488 111.114 106.627 111.193 104.751C111.195 104.127 111.157 103.504 111.078 102.885C111.033 102.467 110.995 102.468 110.573 102.429C109.499 102.329 108.426 102.22 107.352 102.125C106.954 102.09 106.553 102.081 106.108 102.058C106.147 102.432 106.185 102.755 106.213 103.078C106.321 104.703 106.172 106.335 105.771 107.914C105.067 110.981 103.857 113.91 102.191 116.58C101.023 118.565 99.5151 120.33 97.7369 121.795C97.7 121.836 97.6682 121.883 97.6425 121.933ZM72.4801 25.5381C72.52 25.0661 72.3762 24.597 72.0787 24.2284C70.1564 21.7242 68.2363 19.2184 66.3183 16.7111C66.1798 16.5154 66.002 16.3508 65.7962 16.2278C65.5903 16.1049 65.3611 16.0264 65.1231 15.9973C64.8851 15.9681 64.6437 15.9891 64.4143 16.0588C64.1849 16.1286 63.9727 16.2455 63.7911 16.4021C62.7343 17.207 61.6999 18.0419 60.6207 18.8158C60.4254 18.9585 60.2606 19.1389 60.1362 19.3464C60.0118 19.5539 59.9302 19.7842 59.8963 20.0237C59.8623 20.2632 59.8768 20.5071 59.9387 20.741C60.0006 20.9749 60.1087 21.1939 60.2567 21.3853C62.1818 23.8878 64.0909 26.401 66.0232 28.9022C66.1582 29.0963 66.3315 29.2609 66.5323 29.3859C66.7331 29.5109 66.9573 29.5937 67.1912 29.6291C67.425 29.6646 67.6637 29.652 67.8925 29.5922C68.1213 29.5323 68.3356 29.4264 68.5222 29.281C69.6323 28.4748 70.7163 27.623 71.7999 26.7763C71.996 26.631 72.1586 26.4453 72.2768 26.2318C72.395 26.0182 72.466 25.7818 72.4851 25.5385M45.2248 45.2034C47.546 46.7086 49.274 48.9714 50.115 51.607C50.5659 51.3493 50.9866 51.042 51.3692 50.6909C51.6401 50.3938 52.0004 50.193 52.3956 50.1192C52.7137 50.0396 53.032 49.958 53.353 49.8907C53.8761 49.789 54.3753 49.5895 54.8244 49.3026C55.3711 48.9692 55.9004 48.6081 56.4103 48.2208C56.7931 47.8786 57.1457 47.5041 57.4645 47.1015C57.5692 46.9652 57.645 46.8089 57.6872 46.6423C57.8037 46.251 57.5993 46.0063 57.208 46.0856C56.9677 46.1511 56.7355 46.2433 56.5156 46.3603C56.1855 46.5364 55.8458 46.6937 55.4979 46.8314C55.2168 46.9221 54.9197 46.9529 54.6259 46.9218C54.163 46.8673 54.0498 46.4971 54.3593 46.1478C54.4628 46.0314 54.5791 45.9302 54.6968 45.823C55.7733 44.8532 56.5341 43.5828 56.8811 42.1761C56.9513 41.8946 56.9635 41.6018 56.9169 41.3154C56.8703 41.0291 56.7659 40.7552 56.6101 40.5105C56.5334 40.3745 56.4209 40.2622 56.2847 40.1858C56.1485 40.1095 55.994 40.0721 55.838 40.0778C54.8658 40.075 53.9039 40.2772 53.0152 40.6712C51.6371 41.2301 50.3139 41.9159 49.0627 42.7195C48.1326 43.3258 47.192 43.915 46.2584 44.5149C45.9192 44.7332 45.5854 44.9579 45.2208 45.2031M99.4309 48.1248L99.1399 47.9288C99.5047 47.7398 99.8103 47.5618 100.131 47.4132C101.51 46.7639 102.709 45.7893 103.627 44.5733C103.837 44.2652 104.013 43.9348 104.151 43.5883C104.197 43.472 104.216 43.3466 104.206 43.2218C104.194 42.9347 104.041 42.806 103.776 42.8932C103.497 42.9914 103.227 43.1142 102.97 43.2604C102.654 43.4335 102.354 43.63 102.037 43.7991C101.868 43.8932 101.678 43.9425 101.485 43.9421C101.291 43.9418 101.101 43.8918 100.933 43.797C100.98 43.6315 101.037 43.4689 101.103 43.31C101.713 42.0171 102.029 40.6052 102.028 39.1757C102.035 38.6141 101.973 38.0537 101.845 37.5068C101.81 37.3451 101.742 37.1924 101.646 37.0578C101.549 36.9232 101.427 36.8096 101.285 36.724C101.144 36.6384 100.986 36.5825 100.822 36.5598C100.658 36.5371 100.491 36.548 100.332 36.5918C99.9566 36.6496 99.6168 36.8468 99.3805 37.144C98.969 37.6544 98.5873 38.188 98.2373 38.7422C96.9083 40.954 95.3771 43.0377 93.6631 44.9664C93.5852 45.054 93.512 45.1449 93.4145 45.2619C94.3689 45.7995 95.2092 46.5182 95.8882 47.3778C96.5157 48.2555 97.0883 49.1713 97.6027 50.1198L99.4313 48.1198M62.3953 80.8096C63.0308 80.9333 63.644 81.0481 64.2554 81.1728C65.7858 81.4841 67.3198 81.7767 68.8425 82.1194C69.7712 82.4607 70.7946 82.439 71.708 82.0586C71.9137 82.0023 72.1142 81.9355 72.305 81.8769C71.3911 79.5881 71.1426 77.0876 71.5882 74.6636C70.0787 74.1825 63.447 75.2723 61.6099 76.301C61.5568 77.843 61.8223 79.3794 62.3899 80.8141M88.3151 135.432C88.6602 132.63 88.9897 129.893 89.3239 127.147L88.2565 126.579C87.8979 126.388 87.5427 126.191 87.1815 126.006C86.7233 125.771 86.2681 125.525 85.7972 125.321C85.7008 125.268 85.5949 125.235 85.4857 125.224C85.3765 125.212 85.2661 125.222 85.1608 125.253C85.0555 125.285 84.9574 125.336 84.8721 125.405C84.7868 125.475 84.7161 125.56 84.6639 125.657C84.5694 125.799 84.4923 125.953 84.4342 126.114C84.0811 127.101 83.8824 128.136 83.845 129.183C83.8004 130.102 83.8033 131.024 83.8539 131.943C83.9031 132.627 83.9948 133.308 84.1285 133.981C84.1629 134.27 84.291 134.54 84.4932 134.75C84.6954 134.96 84.9606 135.097 85.2484 135.142C85.4171 135.175 85.5836 135.223 85.7527 135.24C86.4215 135.304 87.0909 135.362 87.7607 135.415C87.928 135.43 88.0971 135.423 88.3115 135.428M103.33 83.2471C102.69 82.7548 101.98 82.36 101.224 82.0756C100.985 81.9343 100.72 81.8423 100.444 81.8052C100.169 81.768 99.8884 81.7864 99.6201 81.8594C99.3518 81.9323 99.1008 82.0582 98.882 82.2297C98.6632 82.4012 98.4809 82.6148 98.346 82.8579C97.4421 83.9818 96.7648 85.2702 96.3516 86.6519C96.1484 87.3449 96.1189 88.0771 96.2657 88.7841C96.3058 89.0408 96.4177 89.2809 96.5885 89.4766C96.7593 89.6723 96.982 89.8157 97.2309 89.8901C97.5993 90.0156 97.9759 90.1167 98.3497 90.2257C98.7871 90.3542 98.7797 90.3475 99.0252 89.9836C99.7169 88.9591 100.408 87.9406 101.1 86.9142C101.62 86.1346 102.14 85.352 102.631 84.5559C102.884 84.1485 103.085 83.7084 103.329 83.249M86.1891 63.4783L91.2374 77.9877L93.5612 77.6598C91.6186 72.3246 89.5994 67.063 87.8715 61.6362L86.1853 63.476M87.9669 78.4678C87.2653 76.3201 86.5832 74.2593 85.9197 72.1921C85.2563 70.125 84.6129 68.0465 83.9506 65.9423L81.3319 68.6461L83.0685 73.9272C83.2046 73.92 83.3118 73.9103 83.4192 73.9107C83.9682 73.8785 84.5162 73.9903 85.0086 74.2352C85.2625 74.3612 85.477 74.5544 85.6288 74.7938C85.7806 75.0332 85.8639 75.3096 85.8696 75.593C85.874 76.0803 85.7381 76.5586 85.4782 76.9708C85.0409 77.6947 84.4598 78.3213 83.7709 78.8118C83.6119 78.9314 83.4537 79.0531 83.2958 79.1718L83.3297 79.255L87.967 78.4658M80.7953 119.334C80.8324 119.37 80.86 119.42 80.8966 119.427C81.1571 119.477 81.4255 119.496 81.6781 119.568C81.8044 119.604 81.9379 119.606 82.0653 119.574C82.1927 119.543 82.3097 119.478 82.4044 119.387C83.6953 118.367 84.8036 117.135 85.6823 115.744C88.1752 111.754 89.7006 107.236 90.1365 102.551C90.3404 100.686 90.3631 98.806 90.2044 96.9368C90.0221 94.4541 89.3836 92.0264 88.321 89.7752C88.2923 89.7045 88.244 89.6436 88.1818 89.5994C87.9149 89.4497 87.6397 89.3142 87.2664 89.1181C87.3557 89.3707 87.4067 89.5107 87.4556 89.6514C87.6741 90.2867 87.9205 90.9134 88.105 91.5588C88.9604 94.7338 89.288 98.0279 89.0748 101.309C88.9571 103.856 88.5513 106.382 87.8652 108.838C87.2717 111.111 86.3422 113.282 85.1076 115.28C84.3203 116.6 83.2633 117.739 82.0056 118.622C81.6189 118.878 81.2029 119.091 80.7907 119.329M90.7769 78.0429C89.0329 73.3071 87.3456 68.6335 85.8456 63.8377L84.2588 65.5849L88.4768 78.409L90.7812 78.0513M21.6291 104.156C21.7004 104.245 21.7998 104.306 21.9107 104.331C22.0217 104.355 22.1377 104.341 22.2396 104.291C22.6217 104.117 22.9921 103.918 23.3484 103.695C23.8935 103.299 24.3665 102.811 24.7468 102.255C25.5468 101.132 26.1541 99.8834 26.5437 98.5609C27.5164 95.4277 27.768 92.1152 27.2797 88.8712C27.0891 87.2519 26.5893 85.6842 25.8074 84.2534C25.4425 83.6913 25.0487 83.1484 24.6277 82.6269C24.5716 82.5415 24.4867 82.479 24.3885 82.4507C24.2903 82.4225 24.1852 82.4303 24.0922 82.4728C23.9475 82.5204 23.8023 82.5629 23.6229 82.6175C23.6964 82.7182 23.7369 82.783 23.7862 82.8395C24.3261 83.4713 24.7763 84.1746 25.1241 84.9294C26.2396 87.4081 26.7134 90.1277 26.5017 92.8377C26.408 94.6043 26.0616 96.3483 25.4733 98.0167C24.7543 100.262 23.4971 102.297 21.8112 103.944C21.746 104.013 21.6847 104.085 21.6277 104.161M74.7654 75.3326C73.8924 74.8716 72.9219 74.6258 71.9346 74.6156C71.6223 77.029 71.902 79.4821 72.7495 81.7632L73.0176 81.6923C72.9636 81.5397 72.9229 81.3826 72.896 81.223C72.9022 81.1811 72.9172 81.1409 72.9401 81.1052C72.9629 81.0695 72.993 81.039 73.0285 81.0158C73.0552 80.997 73.1801 81.0611 73.2105 81.115C73.2868 81.2723 73.3545 81.4337 73.4132 81.5984L75.1609 81.1228C74.6894 80.6438 74.4256 79.9985 74.4266 79.3264C74.4013 78.6718 74.42 78.0163 74.4826 77.3642C74.5408 76.6979 74.6676 76.0386 74.7705 75.331M61.2722 76.4331C60.0921 76.81 59.0092 77.4413 58.0999 78.2827C57.9373 78.4501 57.7971 78.6379 57.6827 78.8414C57.5959 79.0055 57.5477 79.1874 57.542 79.373C57.5377 79.575 57.6101 79.7711 57.7446 79.9219C57.8791 80.0728 58.0656 80.1671 58.2668 80.186C59.1155 80.3053 59.9633 80.4346 60.8123 80.5609C61.1185 80.6057 61.425 80.6475 61.8106 80.7023C61.2879 79.3438 61.1058 77.8779 61.2803 76.4328M97.1554 50.6227C96.1113 48.6728 95.0511 46.7707 93.0277 45.6456L91.8705 46.6916C92.0243 46.8154 92.1563 46.9243 92.2906 47.0294C93.1098 47.6584 93.8211 48.4164 94.3969 49.2738C95.0756 50.0948 95.5574 51.0604 95.8052 52.0965L97.1542 50.6246M48.7515 52.6932C48.9778 52.5264 49.1945 52.347 49.4006 52.1558C49.4447 52.1058 49.4775 52.047 49.4969 51.9832C49.5163 51.9195 49.5219 51.8523 49.5132 51.7863C49.4364 51.3895 49.3208 51.0012 49.1679 50.6271C48.4892 49.1989 47.5547 47.907 46.4107 46.8154C45.9268 46.3346 45.3945 45.9027 44.8694 45.4343C44.4941 45.7096 44.1673 45.947 43.8432 46.1867C43.7724 46.2397 43.7105 46.3046 43.6331 46.3751C45.9933 47.8526 47.7929 50.0756 48.7466 52.6918M42.0627 47.6359C43.3243 48.2654 44.4463 49.1424 45.3619 50.2146C46.2774 51.2869 46.9677 52.5324 47.3916 53.8771L48.1768 53.184C48.152 52.6251 47.9861 52.0817 47.6945 51.6043C46.6597 49.7392 45.2237 48.1272 43.4902 46.8845C43.3786 46.8137 43.2633 46.7487 43.145 46.6897L42.0658 47.6352M94.4133 53.6127L95.4125 52.5138C94.6105 50.3591 93.2508 48.456 91.4724 46.9991L90.2731 47.9521C91.2038 48.6716 92.0247 49.5229 92.7099 50.4793C93.4209 51.4387 93.9926 52.4938 94.4082 53.6133M52.6599 79.6671C51.9732 78.1015 51.5143 76.4456 51.2969 74.7499L50.2728 74.5711L51.0151 79.6309L52.6599 79.6671ZM83.7476 52.365C83.3666 51.7526 83.0053 51.155 82.6238 50.5697C82.5696 50.4586 82.4815 50.3675 82.3723 50.3094C82.2631 50.2514 82.1383 50.2294 82.0158 50.2466C81.8371 50.9024 81.6563 51.5581 81.4834 52.2164C81.4634 52.2918 81.4692 52.3718 81.4997 52.4436C81.6988 52.8414 81.9095 53.2331 82.1297 53.6528L83.7476 52.365ZM57.3005 9.30569C57.6417 9.21191 57.9412 9.00581 58.1508 8.72072C58.3604 8.43562 58.4677 8.08819 58.4554 7.73457C58.4601 7.34757 58.3381 6.96964 58.1079 6.65849C57.8777 6.34735 57.552 6.1201 57.1805 6.01144C56.8091 5.90278 56.4122 5.91868 56.0507 6.05671C55.6891 6.19474 55.3826 6.44733 55.1781 6.77589C55.0111 7.00543 54.9172 7.27994 54.9085 7.56363C54.8999 7.84733 54.9768 8.12705 55.1294 8.36636C55.3764 7.27394 55.6325 6.93903 56.3003 6.83076C56.564 6.78477 56.8355 6.81945 57.0792 6.93027C57.3229 7.04109 57.5275 7.22288 57.6661 7.45187C57.9927 7.99925 57.8912 8.57548 57.3036 9.30396M75.9926 78.2529C76.0143 79.1215 76.132 79.985 76.3438 80.8277L78.0639 80.4028C77.9742 79.6911 77.7492 79.0031 77.401 78.3759L75.9926 78.2529ZM75.2524 75.5939C75.2022 75.6628 75.171 75.6872 75.1688 75.712C74.9918 77.4288 74.6381 79.1562 75.4699 80.8135C75.4895 80.8534 75.4787 80.9077 75.493 80.9511C75.501 80.9748 75.5336 80.9917 75.5745 81.0294L75.9224 80.9063C75.4498 79.6611 75.3766 78.2997 75.7127 77.011C75.7424 76.908 75.7436 76.7989 75.7162 76.6952C75.6395 76.4246 75.5514 76.1579 75.4508 75.8962C75.3951 75.7887 75.3293 75.6874 75.2524 75.5939ZM79.3227 77.9647C79.6925 78.5767 79.9075 79.2696 79.9492 79.9834L80.957 79.7624L80.3282 77.6781L79.3266 77.965M78.9159 78.0716L77.9457 78.2639L78.674 80.2665L79.4608 80.0823C79.3984 79.3857 79.215 78.7054 78.9189 78.0719M82.586 79.0375L83.4542 78.462C83.3738 77.7921 83.1262 77.153 82.7343 76.6037L81.8852 77.0534C82.0511 77.3457 82.199 77.6478 82.328 77.9582C82.431 78.3137 82.5147 78.6744 82.5788 79.0389M80.7701 77.514L81.4244 79.5934L82.1769 79.2397C82.0528 78.5351 81.8006 77.8593 81.4328 77.2457L80.7701 77.514ZM84.4847 77.4993C84.3188 76.9356 83.9892 76.4338 83.5377 76.0577L83.1435 76.3655C83.3657 76.6118 83.5365 76.9 83.6458 77.2132C83.7551 77.5264 83.8007 77.8583 83.7801 78.1894L84.4847 77.4993ZM84.2114 75.3086L83.8889 75.7712C84.3352 76.0701 84.6593 76.5194 84.802 77.0372C85.3877 76.1922 85.3697 76.1454 84.5949 75.5137C84.4731 75.4341 84.3449 75.3648 84.2115 75.3066M81.697 54.0114L81.2686 53.0898C80.9672 53.6232 80.7662 54.2074 80.6755 54.8134L81.697 54.0114ZM74.4412 29.2481C74.4469 29.1975 74.4422 29.1463 74.4274 29.0976C74.4126 29.0489 74.388 29.0037 74.3551 28.9649C74.3223 28.926 74.2818 28.8943 74.2362 28.8716C74.1907 28.8489 74.1409 28.8358 74.0901 28.833C74.0396 28.8278 73.9886 28.8327 73.94 28.8473C73.8914 28.862 73.8462 28.8861 73.807 28.9183C73.7678 28.9505 73.7353 28.9902 73.7115 29.0351C73.6878 29.0799 73.6731 29.129 73.6684 29.1796C73.6662 29.2815 73.7013 29.3807 73.7672 29.4586C73.833 29.5364 73.9251 29.5875 74.0259 29.6022C74.1277 29.6093 74.2282 29.5761 74.3059 29.5099C74.3835 29.4437 74.4321 29.3497 74.4412 29.2481ZM75.1543 30.1965C75.0516 30.1927 74.9515 30.2285 74.8745 30.2965C74.7976 30.3646 74.7498 30.4596 74.741 30.5619C74.7399 30.6128 74.749 30.6634 74.7678 30.7108C74.7865 30.7581 74.8145 30.8012 74.8501 30.8376C74.8858 30.874 74.9283 30.903 74.9752 30.9227C75.0222 30.9425 75.0726 30.9527 75.1235 30.9527C75.1744 30.9528 75.2248 30.9426 75.2718 30.923C75.3188 30.9033 75.3613 30.8744 75.397 30.8381C75.4327 30.8018 75.4608 30.7587 75.4796 30.7114C75.4984 30.664 75.5076 30.6134 75.5067 30.5625C75.5072 30.4678 75.4706 30.3766 75.4047 30.3085C75.3388 30.2405 75.2488 30.201 75.1541 30.1985M76.5634 31.9414C76.567 31.8409 76.5324 31.7426 76.4667 31.6664C76.401 31.5902 76.309 31.5415 76.209 31.5301C76.1081 31.5318 76.0112 31.5696 75.9359 31.6367C75.8606 31.7038 75.8119 31.7957 75.7987 31.8957C75.7922 31.9971 75.8263 32.0969 75.8934 32.1731C75.9605 32.2494 76.0552 32.2959 76.1566 32.3023C76.2579 32.3088 76.3577 32.2747 76.434 32.2076C76.5103 32.1405 76.5567 32.0458 76.5632 31.9444M83.9733 74.4267C84.1299 74.6331 84.2087 74.8216 84.3508 74.9073C84.6524 75.0697 84.9631 75.2148 85.2813 75.3419C85.0786 74.733 84.5913 74.567 83.9734 74.4247M83.4952 75.3043L83.5948 75.313C83.6339 75.198 83.716 75.0737 83.6999 74.9709C83.6722 74.829 83.532 74.7796 83.3398 74.82L83.4924 75.301" fill="#1A1818"/>
<path d="M120.068 65.1633C116.202 64.111 112.376 63.001 108.509 61.9166C108.647 61.6115 108.854 61.3424 109.113 61.1303C110.261 59.8969 111.427 58.679 112.583 57.4522C113.739 56.2254 114.87 55.0175 116.013 53.8007C116.225 53.5762 116.438 53.353 116.684 53.0945C117.035 53.4262 117.354 53.7181 117.661 54.0229C118.613 54.9671 119.56 55.9179 120.512 56.8622C120.889 57.2353 121.261 57.6141 121.662 57.9612C121.762 58.0322 121.836 58.1352 121.87 58.2534C121.905 58.3716 121.899 58.498 121.853 58.6121C121.638 59.3461 121.454 60.0827 121.258 60.8253C120.899 62.1508 120.539 63.4763 120.178 64.8016C120.15 64.8995 120.115 65.0048 120.066 65.1621" fill="#1A1818"/>
<path d="M135.374 67.5057C135.858 67.9765 136.294 68.397 136.725 68.822C137.525 69.6115 138.307 70.4204 139.128 71.1847C139.256 71.2819 139.35 71.4177 139.396 71.5722C139.441 71.7266 139.436 71.8915 139.38 72.0427C139.041 73.2595 138.717 74.4817 138.385 75.7001C138.274 76.106 138.155 76.5101 138.041 76.9076C137.627 76.9346 130.009 74.833 128.928 74.3913C129.968 73.2117 131.06 72.1107 132.115 70.9765C133.171 69.8423 134.25 68.7032 135.373 67.5066" fill="#1A1818"/>
<path d="M121.713 64.3304C121.906 63.6236 122.096 62.9157 122.289 62.2089C122.648 60.8995 123.005 59.5898 123.372 58.2831C123.418 58.1524 123.424 58.0104 123.386 57.8767C123.349 57.743 123.271 57.6241 123.164 57.5363C121.729 56.1474 120.308 54.7427 118.885 53.3408C118.744 53.2021 118.621 53.0458 118.491 52.897L118.551 52.8019L128.252 56.381C126.078 59.1016 123.954 61.7563 121.814 64.4004L121.713 64.3254" fill="#1A1818"/>
<path d="M19.7815 69.0674C19.7049 69.1296 19.6321 69.1963 19.5633 69.2671C18.9948 69.8719 18.3358 70.3848 17.61 70.7875C17.4579 70.9141 17.2718 70.9927 17.0751 71.0133C16.8784 71.034 16.6799 70.9959 16.5049 70.9038C16.3484 70.7831 16.2323 70.6176 16.1722 70.4292C16.1121 70.2409 16.1108 70.0388 16.1684 69.8497C16.3069 68.8254 16.6518 67.8397 17.1822 66.9526C17.2294 66.8724 17.2803 66.7946 17.3286 66.7135C17.3371 66.6865 17.3429 66.6588 17.3458 66.6307C17.2465 66.5046 17.1243 66.3634 17.0181 66.2116C16.4833 65.4413 15.9484 64.671 15.4282 63.8939C15.3077 63.711 15.2099 63.5141 15.1372 63.3075C15.0722 63.1885 15.0426 63.0534 15.0519 62.9182C15.0612 62.7829 15.1089 62.6531 15.1896 62.5441C15.2702 62.4351 15.3803 62.3515 15.5069 62.303C15.6335 62.2545 15.7714 62.2433 15.9042 62.2705C16.2614 62.3053 16.6114 62.394 16.942 62.5338C17.5236 62.7693 18.0777 63.0545 18.6449 63.3168C18.7413 63.3624 18.8444 63.3995 18.9733 63.4519C19.0545 63.3275 19.1344 63.2171 19.2047 63.1008C19.7459 62.1286 20.4418 61.2511 21.2652 60.5028C21.5438 60.2529 21.8564 60.0436 22.1937 59.8814C22.328 59.7963 22.4825 59.7484 22.6414 59.7424C22.8003 59.7364 22.9579 59.7727 23.0982 59.8475C23.2386 59.9222 23.3566 60.0329 23.4402 60.1681C23.5239 60.3033 23.5703 60.4583 23.5746 60.6172C23.6327 61.0032 23.6453 61.3947 23.6122 61.7837C23.5418 62.6697 23.4326 63.5524 23.3382 64.4494C23.3665 64.4699 23.401 64.5121 23.4405 64.5185C24.4767 64.7013 25.4536 65.1309 26.2887 65.7709C26.5551 65.9618 26.7912 66.1919 26.9889 66.4533C27.0691 66.531 27.1279 66.628 27.1596 66.7351C27.1913 66.8421 27.1949 66.9556 27.1699 67.0644C27.145 67.1732 27.0924 67.2738 27.0172 67.3563C26.942 67.4389 26.8468 67.5006 26.7408 67.5356C25.9892 67.8784 25.2098 68.1616 24.4372 68.4584C24.1787 68.5573 23.9052 68.6197 23.6446 68.6963C23.6944 69.3911 23.7499 70.0423 23.7833 70.6935C23.801 70.9587 23.7865 71.225 23.7401 71.4866C23.7379 71.6228 23.6983 71.7557 23.6256 71.8708C23.5529 71.986 23.45 72.0789 23.3281 72.1395C23.2061 72.2001 23.0699 72.2261 22.9342 72.2145C22.7986 72.203 22.6687 72.1543 22.5588 72.0739C22.188 71.8737 21.8428 71.6295 21.5304 71.3468C20.9218 70.7824 20.4035 70.1279 19.9938 69.4061C19.9308 69.3002 19.8668 69.1943 19.7876 69.0669M26.5748 67.0002C26.4386 66.7233 26.2238 66.4927 25.9573 66.3371C25.1628 65.8077 24.2999 65.389 23.3924 65.0924C22.8974 64.9338 22.7317 64.7055 22.7613 64.2063C22.8166 63.2858 22.8848 62.3664 22.9351 61.4465C22.9498 61.1971 22.938 60.9468 22.9 60.6998C22.8605 60.4505 22.7184 60.3658 22.497 60.4759C22.2289 60.6035 21.9786 60.7655 21.7524 60.9578C20.8157 61.8136 20.0289 62.8202 19.4248 63.9359C19.286 64.1807 19.1361 64.2539 18.9007 64.1912C18.6148 64.1137 18.3349 64.0155 18.0633 63.8973C17.507 63.648 16.9629 63.3736 16.4078 63.1224C16.3025 63.0558 16.1837 63.0135 16.0599 62.9987C15.9362 62.9839 15.8107 62.9969 15.6927 63.0369C15.7572 63.2135 15.8345 63.3853 15.9238 63.5508C16.3933 64.2883 16.8724 65.0187 17.3503 65.7519C17.6157 66.0564 17.8099 66.4162 17.9187 66.8051C17.2334 67.4809 16.5502 69.6964 16.8285 70.37C17.1051 70.3297 17.3628 70.2058 17.5671 70.015C18.2011 69.5586 18.8262 69.0883 19.4602 68.6319C19.6166 68.5191 19.7946 68.4343 19.967 68.3339C20.5158 69.531 22.2641 71.3346 23.0204 71.511C23.0948 71.4203 23.148 71.3143 23.1764 71.2004C23.2047 71.0866 23.2074 70.9679 23.1843 70.853C23.135 70.107 23.0546 69.3623 22.9953 68.6165C22.9618 68.4833 22.961 68.344 22.9931 68.2105C23.0253 68.0769 23.0893 67.9532 23.1797 67.8498C23.4389 68.2367 23.7754 68.0955 24.0955 67.993C24.6449 67.8152 25.1919 67.6311 25.7317 67.4264C26.0047 67.3228 26.2558 67.1711 26.571 67.0089" fill="#1A1818"/>
<path d="M139.384 76.231C139.503 75.8138 139.624 75.398 139.739 74.9794C140.044 73.866 140.344 72.7511 140.651 71.6389C140.694 71.5149 140.698 71.3805 140.662 71.2544C140.625 71.1282 140.55 71.0165 140.448 70.9346C139.356 69.8858 138.285 68.8158 137.213 67.7507C137.106 67.641 137.017 67.5218 136.92 67.4069L136.974 67.3254L144.48 70.0966L139.518 76.2809L139.388 76.2314" fill="#1A1818"/>
<path d="M142.186 64.0459C140.533 63.6556 138.932 63.1114 137.211 62.6701L140.766 58.8899C141.004 59.1174 141.218 59.3147 141.425 59.5195C141.892 59.9808 142.347 60.4511 142.825 60.9043C142.892 60.9569 142.942 61.0287 142.967 61.1102C142.992 61.1917 142.992 61.2789 142.966 61.3602C142.748 62.1742 142.537 62.9887 142.318 63.8016C142.282 63.8873 142.238 63.9691 142.186 64.0459Z" fill="#1A1818"/>
<path d="M143.104 63.4478C143.293 62.7616 143.471 62.0745 143.674 61.3896C143.738 61.2565 143.754 61.1062 143.722 60.9625C143.689 60.8189 143.61 60.6902 143.496 60.5971C143.063 60.217 142.669 59.794 142.26 59.3849C142.13 59.2561 142.007 59.1209 141.862 58.9697C143.196 59.2893 144.493 59.7471 145.732 60.3357L143.209 63.4901L143.103 63.4457" fill="#1A1818"/>
<path d="M69.918 98.9322C69.7272 99.347 69.5594 99.6947 69.4059 100.05C68.4502 102.31 66.9057 104.272 64.9333 105.732C64.7469 105.874 64.5485 106 64.3404 106.108C64.1761 106.199 63.9954 106.255 63.809 106.275C63.6226 106.294 63.4341 106.277 63.2546 106.222C62.8624 106.118 62.462 106.047 62.0578 106.01C60.6612 105.844 59.2577 105.724 57.8677 105.517C57.2533 105.404 56.6532 105.224 56.078 104.98C55.2625 104.665 54.4603 104.312 53.6701 103.938C53.092 103.663 52.9879 103.395 53.2379 102.796C53.4822 102.204 53.7672 101.629 54.0907 101.075C54.9374 99.722 55.9564 98.4846 57.122 97.394C57.5226 97.0014 57.9225 96.6058 58.3139 96.2034C58.4569 96.0474 58.644 95.9386 58.8504 95.8915C59.0567 95.8445 59.2725 95.8614 59.469 95.94C60.1392 96.1491 60.8114 96.3583 61.4909 96.5291C62.6687 96.8327 63.8519 97.121 65.0404 97.3941C66.5653 97.7435 68.0685 98.1814 69.5424 98.7057C69.6771 98.7666 69.8051 98.8413 69.9243 98.9287M69.3038 99.1395C69.2406 99.0937 69.1731 99.0542 69.1023 99.0215C67.8929 98.6549 66.6894 98.2668 65.471 97.9335C64.4633 97.6588 63.432 97.4704 62.4236 97.2037C61.4289 96.9412 60.4446 96.6394 59.4629 96.3309C59.3046 96.2638 59.1295 96.2474 58.9615 96.2839C58.7935 96.3204 58.6409 96.4081 58.5248 96.5349C58.1003 96.9716 57.6619 97.3949 57.2438 97.8381C56.6442 98.4752 56.0295 99.101 55.469 99.7736C54.6998 100.684 54.0861 101.716 53.6527 102.826C53.4611 103.332 53.4766 103.429 53.9441 103.639C55.344 104.404 56.8614 104.932 58.4344 105.199C59.5212 105.304 60.601 105.489 61.6832 105.646C62.1928 105.717 62.706 105.77 63.2092 105.869C63.422 105.919 63.643 105.921 63.8569 105.876C64.0707 105.832 64.2722 105.741 64.4472 105.61C66.5907 104.116 68.2343 102.011 69.1639 99.5688C69.2133 99.4397 69.2482 99.3052 69.3017 99.1403" fill="#1A1818"/>
<path d="M68.804 45.3574C68.7986 45.5117 68.7451 45.6604 68.6509 45.7826C68.5567 45.9049 68.4266 45.9946 68.2788 46.0391C68.1374 46.0918 67.9829 46.0974 67.8381 46.0551C67.6933 46.0128 67.5661 45.9249 67.4753 45.8044C67.3653 45.6534 67.2761 45.4883 67.2101 45.3135C66.0875 42.7053 64.1239 40.5482 61.6324 39.1861C60.9608 38.8562 60.2646 38.579 59.5501 38.3569C59.3462 38.2788 59.1291 38.2358 58.9263 38.1569C58.8036 38.1244 58.6947 38.0532 58.6157 37.9539C58.5367 37.8546 58.4918 37.7325 58.4877 37.6057C58.4906 37.4792 58.5318 37.3566 58.606 37.2541C58.6802 37.1516 58.7838 37.0741 58.9031 37.0318C59.2892 36.8559 59.7135 36.7804 60.1366 36.8124C60.7469 36.8422 61.3478 36.9751 61.9138 37.2055C63.9275 38.0223 65.6559 39.4142 66.8833 41.2074C67.665 42.285 68.2745 43.4775 68.6901 44.7423C68.7333 44.877 68.7686 45.0141 68.7957 45.153C68.805 45.2221 68.8079 45.2918 68.8046 45.3615" fill="#1A1818"/>
<path d="M56.0384 37.969C55.816 37.9063 55.5991 37.8252 55.3901 37.7267C55.295 37.679 55.2123 37.6101 55.1481 37.5253C55.084 37.4404 55.0403 37.342 55.0203 37.2376C55.0003 37.1332 55.0046 37.0256 55.0329 36.9231C55.0611 36.8206 55.1126 36.726 55.1833 36.6466C55.3063 36.4931 55.4729 36.3803 55.6611 36.3232C55.8494 36.266 56.0505 36.267 56.2381 36.3262C56.433 36.3533 56.6135 36.4442 56.7514 36.5846C56.8893 36.725 56.9768 36.9071 57.0005 37.1024C57.0331 37.2078 57.0385 37.3198 57.0163 37.4278C56.994 37.5359 56.9447 37.6366 56.8731 37.7205C56.8014 37.8044 56.7097 37.8688 56.6065 37.9078C56.5032 37.9467 56.3918 37.9589 56.2826 37.9432C56.2053 37.9434 56.1272 37.9296 56.0495 37.9228L56.037 37.9628" fill="#1A1818"/>
<path d="M62.2776 20.9754C61.8646 20.6251 61.8581 20.5502 62.2348 20.2599C63.1992 19.5157 64.1673 18.7751 65.1391 18.0382C65.4347 17.8141 65.5737 17.8322 65.7261 18.0634C65.7675 18.1112 65.7885 18.1734 65.7845 18.2365C65.7805 18.2996 65.7518 18.3586 65.7047 18.4008C65.6708 18.4337 65.6346 18.464 65.5963 18.4917C64.5422 19.2977 63.4871 20.1033 62.431 20.9085C62.3824 20.9358 62.3309 20.9588 62.2776 20.9754Z" fill="#1A1818"/>
<path d="M63.6665 22.8258C63.5696 22.717 63.4587 22.642 63.4187 22.5372C63.399 22.4375 63.4188 22.3342 63.474 22.2489C63.5177 22.1734 63.6132 22.1265 63.6907 22.0671C64.6094 21.363 65.5285 20.6593 66.4478 19.956C66.5453 19.8778 66.6485 19.807 66.7564 19.744C66.9136 19.6574 67.0223 19.7452 67.1129 19.8685C67.139 19.8927 67.1594 19.9222 67.1729 19.9551C67.1863 19.9879 67.1925 20.0233 67.1909 20.0588C67.1894 20.0943 67.1801 20.129 67.1638 20.1606C67.1475 20.1921 67.1245 20.2197 67.0964 20.2415C67.0377 20.2936 66.9772 20.3425 66.9148 20.3902C65.9466 21.1321 64.9784 21.8734 64.0103 22.6139C63.9146 22.6869 63.8043 22.7425 63.6728 22.8234" fill="#1A1818"/>
<path d="M62.9631 21.8613C62.5351 21.5097 62.5278 21.4317 62.9034 21.1423C63.8678 20.3988 64.8359 19.6589 65.8076 18.9226C66.1076 18.6949 66.2421 18.7066 66.3949 18.9338C66.4162 18.9568 66.4326 18.9838 66.4433 19.0133C66.4539 19.0428 66.4585 19.0742 66.4568 19.1055C66.4551 19.1368 66.4471 19.1674 66.4334 19.1956C66.4196 19.2238 66.4003 19.2489 66.3766 19.2695C66.3201 19.3233 66.2607 19.3741 66.1987 19.4216C65.1946 20.1911 64.1905 20.9596 63.1866 21.7272C63.1158 21.7753 63.0425 21.8199 62.9672 21.8606" fill="#1A1818"/>
<path d="M70.8228 78.3313C70.7613 78.7747 70.5863 79.1947 70.3148 79.5507C70.2066 79.7112 70.0563 79.8387 69.8804 79.9194C69.7044 80 69.5097 80.0306 69.3175 80.0078C69.1253 79.985 68.9431 79.9097 68.791 79.7901C68.6388 79.6705 68.5225 79.5113 68.4549 79.33C68.2787 78.9877 68.2021 78.6027 68.2338 78.219C68.2656 77.8353 68.4044 77.4681 68.6345 77.1594C68.739 76.9825 68.8918 76.8391 69.075 76.746C69.2582 76.6529 69.4642 76.6141 69.6687 76.6339C69.8732 76.6538 70.0678 76.7316 70.2296 76.8582C70.3915 76.9848 70.5138 77.1549 70.5824 77.3486C70.6934 77.6676 70.7742 77.9963 70.8239 78.3304M70.2532 78.4281C70.3059 78.0842 70.2268 77.7332 70.0319 77.4451C69.9934 77.3763 69.9404 77.3166 69.8765 77.2705C69.8126 77.2244 69.7393 77.1928 69.6618 77.178C69.5844 77.1632 69.5046 77.1655 69.4282 77.1848C69.3518 77.2042 69.2805 77.24 69.2193 77.2898C68.943 77.5334 68.7616 77.8669 68.7071 78.2313C68.6527 78.5957 68.7288 78.9677 68.9219 79.2815C68.9685 79.3598 69.0332 79.4257 69.1107 79.4736C69.1882 79.5215 69.2762 79.55 69.367 79.5567C69.4579 79.5633 69.549 79.5479 69.6327 79.5118C69.7163 79.4757 69.79 79.42 69.8475 79.3493C70.0966 79.1057 70.242 78.7753 70.2533 78.4271" fill="#1A1818"/>
<path d="M72.5945 79.1725C72.4731 79.0508 72.3794 78.9044 72.3195 78.7433C72.2596 78.5822 72.235 78.4102 72.2474 78.2387C72.2602 78.0923 72.3133 77.9333 72.4827 77.9582C72.5684 77.9656 72.6776 78.1057 72.7022 78.2042C72.7901 78.531 72.7511 78.8791 72.593 79.1784" fill="#1A1818"/>
<path d="M72.342 76.3402C72.4814 76.4841 72.5677 76.671 72.5868 76.8704C72.6058 77.0698 72.5565 77.2698 72.447 77.4375C72.3599 77.3783 72.287 77.3007 72.2334 77.2101C72.1797 77.1195 72.1467 77.0182 72.1367 76.9135C72.1267 76.8087 72.1399 76.703 72.1754 76.6039C72.2109 76.5048 72.2678 76.4148 72.342 76.3402Z" fill="#1A1818"/>
<path d="M72.7081 79.6509C72.8363 79.7721 72.9261 79.9283 72.9662 80.1001C73.0063 80.2719 72.9951 80.4517 72.9339 80.6172C72.5019 80.3576 72.4104 79.9792 72.7081 79.6509Z" fill="#1A1818"/>
<path d="M72.3518 75.953C72.2626 75.8474 72.2074 75.7172 72.1935 75.5797C72.1795 75.4422 72.2074 75.3036 72.2736 75.1822C72.2885 75.1374 72.374 75.0786 72.4123 75.088C72.4472 75.0963 72.4801 75.1115 72.5089 75.1329C72.5377 75.1542 72.562 75.1811 72.5801 75.2121C72.6276 75.3438 72.631 75.4873 72.5898 75.6212C72.5486 75.755 72.465 75.8718 72.3517 75.954" fill="#1A1818"/>
</g>
</svg>
