<svg width="35" height="36" viewBox="0 0 35 36" fill="none" xmlns="http://www.w3.org/2000/svg">
<path d="M8.28278 3.48559C4.55927 5.75856 1.83194 9.35433 0.647009 13.5528C-0.537921 17.7512 -0.0929571 22.2423 1.89278 26.1266C0.458316 23.1295 0.229706 19.6959 1.25417 16.535C2.27864 13.3742 4.47792 10.7275 7.39778 9.14162C10.3176 7.55577 13.735 7.15187 16.9442 8.01336C20.1533 8.87485 22.9089 10.9359 24.642 13.7709C26.3751 16.6058 26.9533 19.9981 26.257 23.247C25.5607 26.496 23.6433 29.3535 20.9007 31.2293C18.1581 33.1051 14.7998 33.8559 11.5195 33.3267C8.23916 32.7975 5.28738 31.0287 3.27378 28.3856C5.24435 31.1152 7.96822 33.2109 11.1118 34.416C14.2553 35.6211 17.6821 35.8832 20.9724 35.1702C24.2626 34.4573 27.2735 32.8003 29.6363 30.4021C31.9991 28.0039 33.6112 24.9687 34.2752 21.6682C34.9391 18.3677 34.6261 14.9452 33.3744 11.8199C32.1227 8.69459 29.9868 6.00218 27.2281 4.07241C24.4695 2.14265 21.2079 1.05931 17.8429 0.955077C14.4779 0.850848 11.1556 1.73026 8.28278 3.48559Z" fill="#07005C"/>
</svg>
